<mxfile host="app.diagrams.net" modified="2023-04-22T18:42:20.167Z" agent="Mozilla/5.0 (Windows NT 10.0; Win64; x64) AppleWebKit/537.36 (KHTML, like Gecko) Chrome/112.0.0.0 Safari/537.36" etag="CHphDpF-jUcu6TA91van" version="21.2.1" type="device">
  <diagram name="PÃ¡gina-1" id="Q1cYU9FdwQ1lh9cWWlZk">
    <mxGraphModel dx="2387" dy="1779" grid="1" gridSize="10" guides="1" tooltips="1" connect="1" arrows="1" fold="1" page="1" pageScale="1" pageWidth="827" pageHeight="1169" math="0" shadow="0">
      <root>
        <mxCell id="0" />
        <mxCell id="1" parent="0" />
        <mxCell id="ZPtAmM3owyAXCY_3X43K-1" value="Usuario" style="swimlane;fontStyle=1;align=center;verticalAlign=top;childLayout=stackLayout;horizontal=1;startSize=26;horizontalStack=0;resizeParent=1;resizeParentMax=0;resizeLast=0;collapsible=1;marginBottom=0;whiteSpace=wrap;html=1;strokeColor=#009900;" parent="1" vertex="1">
          <mxGeometry x="208" y="-150" width="160" height="270" as="geometry" />
        </mxCell>
        <mxCell id="ZPtAmM3owyAXCY_3X43K-2" value="Id" style="text;strokeColor=#009900;fillColor=none;align=left;verticalAlign=top;spacingLeft=4;spacingRight=4;overflow=hidden;rotatable=0;points=[[0,0.5],[1,0.5]];portConstraint=eastwest;whiteSpace=wrap;html=1;" parent="ZPtAmM3owyAXCY_3X43K-1" vertex="1">
          <mxGeometry y="26" width="160" height="26" as="geometry" />
        </mxCell>
        <mxCell id="ZPtAmM3owyAXCY_3X43K-43" value="Nick(unico)" style="text;strokeColor=#009900;fillColor=none;align=left;verticalAlign=top;spacingLeft=4;spacingRight=4;overflow=hidden;rotatable=0;points=[[0,0.5],[1,0.5]];portConstraint=eastwest;whiteSpace=wrap;html=1;" parent="ZPtAmM3owyAXCY_3X43K-1" vertex="1">
          <mxGeometry y="52" width="160" height="26" as="geometry" />
        </mxCell>
        <mxCell id="ZPtAmM3owyAXCY_3X43K-8" value="Email(unico)" style="text;strokeColor=#009900;fillColor=none;align=left;verticalAlign=top;spacingLeft=4;spacingRight=4;overflow=hidden;rotatable=0;points=[[0,0.5],[1,0.5]];portConstraint=eastwest;whiteSpace=wrap;html=1;" parent="ZPtAmM3owyAXCY_3X43K-1" vertex="1">
          <mxGeometry y="78" width="160" height="26" as="geometry" />
        </mxCell>
        <mxCell id="ZPtAmM3owyAXCY_3X43K-46" value="Password" style="text;strokeColor=#009900;fillColor=none;align=left;verticalAlign=top;spacingLeft=4;spacingRight=4;overflow=hidden;rotatable=0;points=[[0,0.5],[1,0.5]];portConstraint=eastwest;whiteSpace=wrap;html=1;" parent="ZPtAmM3owyAXCY_3X43K-1" vertex="1">
          <mxGeometry y="104" width="160" height="26" as="geometry" />
        </mxCell>
        <mxCell id="ZPtAmM3owyAXCY_3X43K-9" value="Telefono" style="text;strokeColor=#009900;fillColor=none;align=left;verticalAlign=top;spacingLeft=4;spacingRight=4;overflow=hidden;rotatable=0;points=[[0,0.5],[1,0.5]];portConstraint=eastwest;whiteSpace=wrap;html=1;" parent="ZPtAmM3owyAXCY_3X43K-1" vertex="1">
          <mxGeometry y="130" width="160" height="26" as="geometry" />
        </mxCell>
        <mxCell id="ZPtAmM3owyAXCY_3X43K-11" value="Nombre" style="text;strokeColor=#009900;fillColor=none;align=left;verticalAlign=top;spacingLeft=4;spacingRight=4;overflow=hidden;rotatable=0;points=[[0,0.5],[1,0.5]];portConstraint=eastwest;whiteSpace=wrap;html=1;" parent="ZPtAmM3owyAXCY_3X43K-1" vertex="1">
          <mxGeometry y="156" width="160" height="26" as="geometry" />
        </mxCell>
        <mxCell id="ZPtAmM3owyAXCY_3X43K-10" value="Apellido" style="text;strokeColor=#009900;fillColor=none;align=left;verticalAlign=top;spacingLeft=4;spacingRight=4;overflow=hidden;rotatable=0;points=[[0,0.5],[1,0.5]];portConstraint=eastwest;whiteSpace=wrap;html=1;" parent="ZPtAmM3owyAXCY_3X43K-1" vertex="1">
          <mxGeometry y="182" width="160" height="26" as="geometry" />
        </mxCell>
        <mxCell id="ZPtAmM3owyAXCY_3X43K-21" value="Imagen" style="text;strokeColor=#009900;fillColor=none;align=left;verticalAlign=top;spacingLeft=4;spacingRight=4;overflow=hidden;rotatable=0;points=[[0,0.5],[1,0.5]];portConstraint=eastwest;whiteSpace=wrap;html=1;" parent="ZPtAmM3owyAXCY_3X43K-1" vertex="1">
          <mxGeometry y="208" width="160" height="26" as="geometry" />
        </mxCell>
        <mxCell id="ZPtAmM3owyAXCY_3X43K-23" value="Biografia" style="text;strokeColor=#009900;fillColor=none;align=left;verticalAlign=top;spacingLeft=4;spacingRight=4;overflow=hidden;rotatable=0;points=[[0,0.5],[1,0.5]];portConstraint=eastwest;whiteSpace=wrap;html=1;" parent="ZPtAmM3owyAXCY_3X43K-1" vertex="1">
          <mxGeometry y="234" width="160" height="26" as="geometry" />
        </mxCell>
        <mxCell id="ZPtAmM3owyAXCY_3X43K-3" value="" style="line;strokeWidth=1;fillColor=none;align=left;verticalAlign=middle;spacingTop=-1;spacingLeft=3;spacingRight=3;rotatable=0;labelPosition=right;points=[];portConstraint=eastwest;strokeColor=#009900;" parent="ZPtAmM3owyAXCY_3X43K-1" vertex="1">
          <mxGeometry y="260" width="160" height="10" as="geometry" />
        </mxCell>
        <mxCell id="ZPtAmM3owyAXCY_3X43K-24" value="Estudiante" style="swimlane;fontStyle=0;childLayout=stackLayout;horizontal=1;startSize=26;fillColor=none;horizontalStack=0;resizeParent=1;resizeParentMax=0;resizeLast=0;collapsible=1;marginBottom=0;whiteSpace=wrap;html=1;strokeColor=#009900;" parent="1" vertex="1">
          <mxGeometry x="382" y="140" width="140" height="78" as="geometry" />
        </mxCell>
        <mxCell id="ZPtAmM3owyAXCY_3X43K-25" value="Creditos" style="text;strokeColor=#009900;fillColor=none;align=left;verticalAlign=top;spacingLeft=4;spacingRight=4;overflow=hidden;rotatable=0;points=[[0,0.5],[1,0.5]];portConstraint=eastwest;whiteSpace=wrap;html=1;" parent="ZPtAmM3owyAXCY_3X43K-24" vertex="1">
          <mxGeometry y="26" width="140" height="26" as="geometry" />
        </mxCell>
        <mxCell id="ZPtAmM3owyAXCY_3X43K-27" value="+ field: type" style="text;strokeColor=#009900;fillColor=none;align=left;verticalAlign=top;spacingLeft=4;spacingRight=4;overflow=hidden;rotatable=0;points=[[0,0.5],[1,0.5]];portConstraint=eastwest;whiteSpace=wrap;html=1;" parent="ZPtAmM3owyAXCY_3X43K-24" vertex="1">
          <mxGeometry y="52" width="140" height="26" as="geometry" />
        </mxCell>
        <mxCell id="ZPtAmM3owyAXCY_3X43K-28" value="" style="endArrow=classic;html=1;rounded=0;exitX=0.5;exitY=1;exitDx=0;exitDy=0;entryX=0.5;entryY=0;entryDx=0;entryDy=0;strokeColor=#009900;" parent="1" source="ZPtAmM3owyAXCY_3X43K-1" target="ZPtAmM3owyAXCY_3X43K-24" edge="1">
          <mxGeometry width="50" height="50" relative="1" as="geometry">
            <mxPoint x="228" y="160" as="sourcePoint" />
            <mxPoint x="278" y="110" as="targetPoint" />
          </mxGeometry>
        </mxCell>
        <mxCell id="ZPtAmM3owyAXCY_3X43K-29" value="Colaborador" style="swimlane;fontStyle=0;childLayout=stackLayout;horizontal=1;startSize=26;fillColor=none;horizontalStack=0;resizeParent=1;resizeParentMax=0;resizeLast=0;collapsible=1;marginBottom=0;whiteSpace=wrap;html=1;strokeColor=#009900;" parent="1" vertex="1">
          <mxGeometry x="218" y="140" width="140" height="78" as="geometry" />
        </mxCell>
        <mxCell id="ZPtAmM3owyAXCY_3X43K-30" value="+ field: type" style="text;strokeColor=#009900;fillColor=none;align=left;verticalAlign=top;spacingLeft=4;spacingRight=4;overflow=hidden;rotatable=0;points=[[0,0.5],[1,0.5]];portConstraint=eastwest;whiteSpace=wrap;html=1;" parent="ZPtAmM3owyAXCY_3X43K-29" vertex="1">
          <mxGeometry y="26" width="140" height="26" as="geometry" />
        </mxCell>
        <mxCell id="ZPtAmM3owyAXCY_3X43K-31" value="+ field: type" style="text;strokeColor=#009900;fillColor=none;align=left;verticalAlign=top;spacingLeft=4;spacingRight=4;overflow=hidden;rotatable=0;points=[[0,0.5],[1,0.5]];portConstraint=eastwest;whiteSpace=wrap;html=1;" parent="ZPtAmM3owyAXCY_3X43K-29" vertex="1">
          <mxGeometry y="52" width="140" height="26" as="geometry" />
        </mxCell>
        <mxCell id="ZPtAmM3owyAXCY_3X43K-33" value="Organizador" style="swimlane;fontStyle=0;childLayout=stackLayout;horizontal=1;startSize=26;fillColor=none;horizontalStack=0;resizeParent=1;resizeParentMax=0;resizeLast=0;collapsible=1;marginBottom=0;whiteSpace=wrap;html=1;strokeColor=#009900;" parent="1" vertex="1">
          <mxGeometry x="58" y="140" width="140" height="78" as="geometry" />
        </mxCell>
        <mxCell id="ZPtAmM3owyAXCY_3X43K-34" value="+ field: type" style="text;strokeColor=#009900;fillColor=none;align=left;verticalAlign=top;spacingLeft=4;spacingRight=4;overflow=hidden;rotatable=0;points=[[0,0.5],[1,0.5]];portConstraint=eastwest;whiteSpace=wrap;html=1;" parent="ZPtAmM3owyAXCY_3X43K-33" vertex="1">
          <mxGeometry y="26" width="140" height="26" as="geometry" />
        </mxCell>
        <mxCell id="ZPtAmM3owyAXCY_3X43K-35" value="+ field: type" style="text;strokeColor=#009900;fillColor=none;align=left;verticalAlign=top;spacingLeft=4;spacingRight=4;overflow=hidden;rotatable=0;points=[[0,0.5],[1,0.5]];portConstraint=eastwest;whiteSpace=wrap;html=1;" parent="ZPtAmM3owyAXCY_3X43K-33" vertex="1">
          <mxGeometry y="52" width="140" height="26" as="geometry" />
        </mxCell>
        <mxCell id="ZPtAmM3owyAXCY_3X43K-37" value="" style="endArrow=classic;html=1;rounded=0;exitX=0.494;exitY=0.8;exitDx=0;exitDy=0;exitPerimeter=0;entryX=0.5;entryY=0;entryDx=0;entryDy=0;strokeColor=#009900;" parent="1" source="ZPtAmM3owyAXCY_3X43K-3" target="ZPtAmM3owyAXCY_3X43K-33" edge="1">
          <mxGeometry width="50" height="50" relative="1" as="geometry">
            <mxPoint x="428" y="280" as="sourcePoint" />
            <mxPoint x="478" y="230" as="targetPoint" />
          </mxGeometry>
        </mxCell>
        <mxCell id="ZPtAmM3owyAXCY_3X43K-38" value="" style="endArrow=classic;html=1;rounded=0;entryX=0.5;entryY=0;entryDx=0;entryDy=0;exitX=0.5;exitY=1;exitDx=0;exitDy=0;strokeColor=#009900;" parent="1" source="ZPtAmM3owyAXCY_3X43K-1" target="ZPtAmM3owyAXCY_3X43K-29" edge="1">
          <mxGeometry width="50" height="50" relative="1" as="geometry">
            <mxPoint x="378" y="100" as="sourcePoint" />
            <mxPoint x="148" y="130" as="targetPoint" />
          </mxGeometry>
        </mxCell>
        <mxCell id="NsuVV6VqmqSOSXp8Vnuj-35" style="edgeStyle=orthogonalEdgeStyle;rounded=0;orthogonalLoop=1;jettySize=auto;html=1;exitX=1;exitY=-0.231;exitDx=0;exitDy=0;entryX=0;entryY=0.5;entryDx=0;entryDy=0;exitPerimeter=0;strokeColor=#3300FF;" edge="1" parent="1" source="ZPtAmM3owyAXCY_3X43K-48" target="NsuVV6VqmqSOSXp8Vnuj-27">
          <mxGeometry relative="1" as="geometry" />
        </mxCell>
        <mxCell id="ZPtAmM3owyAXCY_3X43K-39" value="Curso" style="swimlane;fontStyle=1;align=center;verticalAlign=top;childLayout=stackLayout;horizontal=1;startSize=26;horizontalStack=0;resizeParent=1;resizeParentMax=0;resizeLast=0;collapsible=1;marginBottom=0;whiteSpace=wrap;html=1;strokeColor=#3300FF;" parent="1" vertex="1">
          <mxGeometry x="324" y="740" width="160" height="78" as="geometry" />
        </mxCell>
        <mxCell id="ZPtAmM3owyAXCY_3X43K-48" value="CreditosOtorga" style="text;strokeColor=#3300FF;fillColor=none;align=left;verticalAlign=top;spacingLeft=4;spacingRight=4;overflow=hidden;rotatable=0;points=[[0,0.5],[1,0.5]];portConstraint=eastwest;whiteSpace=wrap;html=1;" parent="ZPtAmM3owyAXCY_3X43K-39" vertex="1">
          <mxGeometry y="26" width="160" height="26" as="geometry" />
        </mxCell>
        <mxCell id="NsuVV6VqmqSOSXp8Vnuj-100" value="Instructores" style="text;strokeColor=#3300FF;fillColor=none;align=left;verticalAlign=top;spacingLeft=4;spacingRight=4;overflow=hidden;rotatable=0;points=[[0,0.5],[1,0.5]];portConstraint=eastwest;whiteSpace=wrap;html=1;" vertex="1" parent="ZPtAmM3owyAXCY_3X43K-39">
          <mxGeometry y="52" width="160" height="26" as="geometry" />
        </mxCell>
        <mxCell id="ZPtAmM3owyAXCY_3X43K-54" value="Seminario" style="swimlane;fontStyle=1;align=center;verticalAlign=top;childLayout=stackLayout;horizontal=1;startSize=26;horizontalStack=0;resizeParent=1;resizeParentMax=0;resizeLast=0;collapsible=1;marginBottom=0;whiteSpace=wrap;html=1;strokeColor=#3300FF;" parent="1" vertex="1">
          <mxGeometry x="210" y="969.46" width="160" height="78" as="geometry" />
        </mxCell>
        <mxCell id="ZPtAmM3owyAXCY_3X43K-68" value="Fecha" style="text;strokeColor=#3300FF;fillColor=none;align=left;verticalAlign=top;spacingLeft=4;spacingRight=4;overflow=hidden;rotatable=0;points=[[0,0.5],[1,0.5]];portConstraint=eastwest;whiteSpace=wrap;html=1;" parent="ZPtAmM3owyAXCY_3X43K-54" vertex="1">
          <mxGeometry y="26" width="160" height="26" as="geometry" />
        </mxCell>
        <mxCell id="ZPtAmM3owyAXCY_3X43K-81" value="Hora" style="text;strokeColor=#3300FF;fillColor=none;align=left;verticalAlign=top;spacingLeft=4;spacingRight=4;overflow=hidden;rotatable=0;points=[[0,0.5],[1,0.5]];portConstraint=eastwest;whiteSpace=wrap;html=1;" parent="ZPtAmM3owyAXCY_3X43K-54" vertex="1">
          <mxGeometry y="52" width="160" height="26" as="geometry" />
        </mxCell>
        <mxCell id="ZPtAmM3owyAXCY_3X43K-58" value="Presencial" style="swimlane;fontStyle=1;align=center;verticalAlign=top;childLayout=stackLayout;horizontal=1;startSize=26;horizontalStack=0;resizeParent=1;resizeParentMax=0;resizeLast=0;collapsible=1;marginBottom=0;whiteSpace=wrap;html=1;strokeColor=#3300FF;" parent="1" vertex="1">
          <mxGeometry x="20" y="1085.46" width="160" height="78" as="geometry" />
        </mxCell>
        <mxCell id="ZPtAmM3owyAXCY_3X43K-59" value="Ubicacion" style="text;strokeColor=#3300FF;fillColor=none;align=left;verticalAlign=top;spacingLeft=4;spacingRight=4;overflow=hidden;rotatable=0;points=[[0,0.5],[1,0.5]];portConstraint=eastwest;whiteSpace=wrap;html=1;" parent="ZPtAmM3owyAXCY_3X43K-58" vertex="1">
          <mxGeometry y="26" width="160" height="26" as="geometry" />
        </mxCell>
        <mxCell id="ZPtAmM3owyAXCY_3X43K-80" value="Capacidad" style="text;strokeColor=#3300FF;fillColor=none;align=left;verticalAlign=top;spacingLeft=4;spacingRight=4;overflow=hidden;rotatable=0;points=[[0,0.5],[1,0.5]];portConstraint=eastwest;whiteSpace=wrap;html=1;" parent="ZPtAmM3owyAXCY_3X43K-58" vertex="1">
          <mxGeometry y="52" width="160" height="26" as="geometry" />
        </mxCell>
        <mxCell id="ZPtAmM3owyAXCY_3X43K-62" value="Virtual" style="swimlane;fontStyle=1;align=center;verticalAlign=top;childLayout=stackLayout;horizontal=1;startSize=26;horizontalStack=0;resizeParent=1;resizeParentMax=0;resizeLast=0;collapsible=1;marginBottom=0;whiteSpace=wrap;html=1;strokeColor=#3300FF;" parent="1" vertex="1">
          <mxGeometry x="360" y="1084.96" width="160" height="52" as="geometry" />
        </mxCell>
        <mxCell id="ZPtAmM3owyAXCY_3X43K-63" value="Plataforma" style="text;strokeColor=#3300FF;fillColor=none;align=left;verticalAlign=top;spacingLeft=4;spacingRight=4;overflow=hidden;rotatable=0;points=[[0,0.5],[1,0.5]];portConstraint=eastwest;whiteSpace=wrap;html=1;" parent="ZPtAmM3owyAXCY_3X43K-62" vertex="1">
          <mxGeometry y="26" width="160" height="26" as="geometry" />
        </mxCell>
        <mxCell id="ZPtAmM3owyAXCY_3X43K-69" value="Programa" style="swimlane;fontStyle=1;align=center;verticalAlign=top;childLayout=stackLayout;horizontal=1;startSize=26;horizontalStack=0;resizeParent=1;resizeParentMax=0;resizeLast=0;collapsible=1;marginBottom=0;whiteSpace=wrap;html=1;strokeColor=#3300FF;" parent="1" vertex="1">
          <mxGeometry x="20" y="701" width="160" height="130" as="geometry" />
        </mxCell>
        <mxCell id="ZPtAmM3owyAXCY_3X43K-40" value="Id" style="text;strokeColor=#3300FF;fillColor=none;align=left;verticalAlign=top;spacingLeft=4;spacingRight=4;overflow=hidden;rotatable=0;points=[[0,0.5],[1,0.5]];portConstraint=eastwest;whiteSpace=wrap;html=1;" parent="ZPtAmM3owyAXCY_3X43K-69" vertex="1">
          <mxGeometry y="26" width="160" height="26" as="geometry" />
        </mxCell>
        <mxCell id="ZPtAmM3owyAXCY_3X43K-47" value="Descripcion&lt;span style=&quot;white-space: pre;&quot;&gt; &lt;/span&gt;" style="text;strokeColor=#3300FF;fillColor=none;align=left;verticalAlign=top;spacingLeft=4;spacingRight=4;overflow=hidden;rotatable=0;points=[[0,0.5],[1,0.5]];portConstraint=eastwest;whiteSpace=wrap;html=1;" parent="ZPtAmM3owyAXCY_3X43K-69" vertex="1">
          <mxGeometry y="52" width="160" height="26" as="geometry" />
        </mxCell>
        <mxCell id="ZPtAmM3owyAXCY_3X43K-44" value="Nombre" style="text;strokeColor=#3300FF;fillColor=none;align=left;verticalAlign=top;spacingLeft=4;spacingRight=4;overflow=hidden;rotatable=0;points=[[0,0.5],[1,0.5]];portConstraint=eastwest;whiteSpace=wrap;html=1;" parent="ZPtAmM3owyAXCY_3X43K-69" vertex="1">
          <mxGeometry y="78" width="160" height="26" as="geometry" />
        </mxCell>
        <mxCell id="ZPtAmM3owyAXCY_3X43K-49" value="Precio" style="text;strokeColor=#3300FF;fillColor=none;align=left;verticalAlign=top;spacingLeft=4;spacingRight=4;overflow=hidden;rotatable=0;points=[[0,0.5],[1,0.5]];portConstraint=eastwest;whiteSpace=wrap;html=1;" parent="ZPtAmM3owyAXCY_3X43K-69" vertex="1">
          <mxGeometry y="104" width="160" height="26" as="geometry" />
        </mxCell>
        <mxCell id="ZPtAmM3owyAXCY_3X43K-76" value="" style="endArrow=classic;html=1;rounded=0;exitX=1;exitY=0.5;exitDx=0;exitDy=0;entryX=0;entryY=0.5;entryDx=0;entryDy=0;strokeColor=#3300FF;" parent="1" source="ZPtAmM3owyAXCY_3X43K-47" target="ZPtAmM3owyAXCY_3X43K-39" edge="1">
          <mxGeometry width="50" height="50" relative="1" as="geometry">
            <mxPoint x="-208" y="1387.46" as="sourcePoint" />
            <mxPoint x="-158" y="1337.46" as="targetPoint" />
          </mxGeometry>
        </mxCell>
        <mxCell id="ZPtAmM3owyAXCY_3X43K-77" value="" style="endArrow=classic;html=1;rounded=0;exitX=1;exitY=0.5;exitDx=0;exitDy=0;entryX=0.5;entryY=0;entryDx=0;entryDy=0;strokeColor=#3300FF;" parent="1" source="ZPtAmM3owyAXCY_3X43K-47" target="ZPtAmM3owyAXCY_3X43K-54" edge="1">
          <mxGeometry width="50" height="50" relative="1" as="geometry">
            <mxPoint x="142" y="1317.46" as="sourcePoint" />
            <mxPoint x="192" y="1267.46" as="targetPoint" />
          </mxGeometry>
        </mxCell>
        <mxCell id="ZPtAmM3owyAXCY_3X43K-78" value="" style="endArrow=classic;html=1;rounded=0;exitX=0.419;exitY=1.154;exitDx=0;exitDy=0;exitPerimeter=0;entryX=0.5;entryY=0;entryDx=0;entryDy=0;strokeColor=#3300FF;" parent="1" source="ZPtAmM3owyAXCY_3X43K-81" target="ZPtAmM3owyAXCY_3X43K-58" edge="1">
          <mxGeometry width="50" height="50" relative="1" as="geometry">
            <mxPoint x="-187" y="1219.46" as="sourcePoint" />
            <mxPoint x="-137" y="1169.46" as="targetPoint" />
          </mxGeometry>
        </mxCell>
        <mxCell id="ZPtAmM3owyAXCY_3X43K-79" value="" style="endArrow=classic;html=1;rounded=0;entryX=0.5;entryY=0;entryDx=0;entryDy=0;exitX=0.463;exitY=1.038;exitDx=0;exitDy=0;exitPerimeter=0;strokeColor=#3300FF;" parent="1" source="ZPtAmM3owyAXCY_3X43K-81" target="ZPtAmM3owyAXCY_3X43K-62" edge="1">
          <mxGeometry width="50" height="50" relative="1" as="geometry">
            <mxPoint x="133" y="1059.46" as="sourcePoint" />
            <mxPoint x="-187" y="1189.46" as="targetPoint" />
          </mxGeometry>
        </mxCell>
        <mxCell id="ZPtAmM3owyAXCY_3X43K-90" value="Evaluacion" style="swimlane;fontStyle=1;align=center;verticalAlign=top;childLayout=stackLayout;horizontal=1;startSize=26;horizontalStack=0;resizeParent=1;resizeParentMax=0;resizeLast=0;collapsible=1;marginBottom=0;whiteSpace=wrap;html=1;strokeColor=#3300FF;" parent="1" vertex="1">
          <mxGeometry x="860" y="575.46" width="160" height="108" as="geometry" />
        </mxCell>
        <mxCell id="ZPtAmM3owyAXCY_3X43K-91" value="id" style="text;strokeColor=#3300FF;fillColor=none;align=left;verticalAlign=top;spacingLeft=4;spacingRight=4;overflow=hidden;rotatable=0;points=[[0,0.5],[1,0.5]];portConstraint=eastwest;whiteSpace=wrap;html=1;" parent="ZPtAmM3owyAXCY_3X43K-90" vertex="1">
          <mxGeometry y="26" width="160" height="26" as="geometry" />
        </mxCell>
        <mxCell id="ZPtAmM3owyAXCY_3X43K-98" value="NotaAprobacion" style="text;strokeColor=#3300FF;fillColor=none;align=left;verticalAlign=top;spacingLeft=4;spacingRight=4;overflow=hidden;rotatable=0;points=[[0,0.5],[1,0.5]];portConstraint=eastwest;whiteSpace=wrap;html=1;" parent="ZPtAmM3owyAXCY_3X43K-90" vertex="1">
          <mxGeometry y="52" width="160" height="28" as="geometry" />
        </mxCell>
        <mxCell id="WCXfPcYEh5c6cVtNDC9O-47" value="Titulo" style="text;strokeColor=#3300FF;fillColor=none;align=left;verticalAlign=top;spacingLeft=4;spacingRight=4;overflow=hidden;rotatable=0;points=[[0,0.5],[1,0.5]];portConstraint=eastwest;whiteSpace=wrap;html=1;" parent="ZPtAmM3owyAXCY_3X43K-90" vertex="1">
          <mxGeometry y="80" width="160" height="28" as="geometry" />
        </mxCell>
        <mxCell id="WCXfPcYEh5c6cVtNDC9O-4" value="Prueba" style="swimlane;fontStyle=1;align=center;verticalAlign=top;childLayout=stackLayout;horizontal=1;startSize=26;horizontalStack=0;resizeParent=1;resizeParentMax=0;resizeLast=0;collapsible=1;marginBottom=0;whiteSpace=wrap;html=1;strokeColor=#009900;" parent="1" vertex="1">
          <mxGeometry x="720" y="342" width="160" height="78" as="geometry" />
        </mxCell>
        <mxCell id="WCXfPcYEh5c6cVtNDC9O-5" value="id" style="text;strokeColor=#009900;fillColor=none;align=left;verticalAlign=top;spacingLeft=4;spacingRight=4;overflow=hidden;rotatable=0;points=[[0,0.5],[1,0.5]];portConstraint=eastwest;whiteSpace=wrap;html=1;" parent="WCXfPcYEh5c6cVtNDC9O-4" vertex="1">
          <mxGeometry y="26" width="160" height="26" as="geometry" />
        </mxCell>
        <mxCell id="WCXfPcYEh5c6cVtNDC9O-9" value="NotaTotalObtenida" style="text;strokeColor=#009900;fillColor=none;align=left;verticalAlign=top;spacingLeft=4;spacingRight=4;overflow=hidden;rotatable=0;points=[[0,0.5],[1,0.5]];portConstraint=eastwest;whiteSpace=wrap;html=1;" parent="WCXfPcYEh5c6cVtNDC9O-4" vertex="1">
          <mxGeometry y="52" width="160" height="26" as="geometry" />
        </mxCell>
        <mxCell id="WCXfPcYEh5c6cVtNDC9O-10" value="Pregunta" style="swimlane;fontStyle=1;align=center;verticalAlign=top;childLayout=stackLayout;horizontal=1;startSize=26;horizontalStack=0;resizeParent=1;resizeParentMax=0;resizeLast=0;collapsible=1;marginBottom=0;whiteSpace=wrap;html=1;strokeColor=#3300FF;" parent="1" vertex="1">
          <mxGeometry x="1110" y="570" width="160" height="130" as="geometry" />
        </mxCell>
        <mxCell id="WCXfPcYEh5c6cVtNDC9O-11" value="id" style="text;strokeColor=#3300FF;fillColor=none;align=left;verticalAlign=top;spacingLeft=4;spacingRight=4;overflow=hidden;rotatable=0;points=[[0,0.5],[1,0.5]];portConstraint=eastwest;whiteSpace=wrap;html=1;" parent="WCXfPcYEh5c6cVtNDC9O-10" vertex="1">
          <mxGeometry y="26" width="160" height="26" as="geometry" />
        </mxCell>
        <mxCell id="WCXfPcYEh5c6cVtNDC9O-13" value="NotaMaxima" style="text;strokeColor=#3300FF;fillColor=none;align=left;verticalAlign=top;spacingLeft=4;spacingRight=4;overflow=hidden;rotatable=0;points=[[0,0.5],[1,0.5]];portConstraint=eastwest;whiteSpace=wrap;html=1;" parent="WCXfPcYEh5c6cVtNDC9O-10" vertex="1">
          <mxGeometry y="52" width="160" height="26" as="geometry" />
        </mxCell>
        <mxCell id="WCXfPcYEh5c6cVtNDC9O-14" value="Contenido" style="text;strokeColor=#3300FF;fillColor=none;align=left;verticalAlign=top;spacingLeft=4;spacingRight=4;overflow=hidden;rotatable=0;points=[[0,0.5],[1,0.5]];portConstraint=eastwest;whiteSpace=wrap;html=1;" parent="WCXfPcYEh5c6cVtNDC9O-10" vertex="1">
          <mxGeometry y="78" width="160" height="26" as="geometry" />
        </mxCell>
        <mxCell id="LDouwzN-nkE6FRnU46Fn-7" value="Correcta" style="text;strokeColor=#3300FF;fillColor=none;align=left;verticalAlign=top;spacingLeft=4;spacingRight=4;overflow=hidden;rotatable=0;points=[[0,0.5],[1,0.5]];portConstraint=eastwest;whiteSpace=wrap;html=1;" parent="WCXfPcYEh5c6cVtNDC9O-10" vertex="1">
          <mxGeometry y="104" width="160" height="26" as="geometry" />
        </mxCell>
        <mxCell id="WCXfPcYEh5c6cVtNDC9O-25" value="Respuesta" style="swimlane;fontStyle=1;align=center;verticalAlign=top;childLayout=stackLayout;horizontal=1;startSize=26;horizontalStack=0;resizeParent=1;resizeParentMax=0;resizeLast=0;collapsible=1;marginBottom=0;whiteSpace=wrap;html=1;strokeColor=#009900;" parent="1" vertex="1">
          <mxGeometry x="1110" y="390" width="160" height="104" as="geometry" />
        </mxCell>
        <mxCell id="WCXfPcYEh5c6cVtNDC9O-26" value="id" style="text;strokeColor=#009900;fillColor=none;align=left;verticalAlign=top;spacingLeft=4;spacingRight=4;overflow=hidden;rotatable=0;points=[[0,0.5],[1,0.5]];portConstraint=eastwest;whiteSpace=wrap;html=1;" parent="WCXfPcYEh5c6cVtNDC9O-25" vertex="1">
          <mxGeometry y="26" width="160" height="26" as="geometry" />
        </mxCell>
        <mxCell id="WCXfPcYEh5c6cVtNDC9O-27" value="NotaObtenida" style="text;strokeColor=#009900;fillColor=none;align=left;verticalAlign=top;spacingLeft=4;spacingRight=4;overflow=hidden;rotatable=0;points=[[0,0.5],[1,0.5]];portConstraint=eastwest;whiteSpace=wrap;html=1;" parent="WCXfPcYEh5c6cVtNDC9O-25" vertex="1">
          <mxGeometry y="52" width="160" height="26" as="geometry" />
        </mxCell>
        <mxCell id="WCXfPcYEh5c6cVtNDC9O-28" value="Contenido" style="text;strokeColor=#009900;fillColor=none;align=left;verticalAlign=top;spacingLeft=4;spacingRight=4;overflow=hidden;rotatable=0;points=[[0,0.5],[1,0.5]];portConstraint=eastwest;whiteSpace=wrap;html=1;" parent="WCXfPcYEh5c6cVtNDC9O-25" vertex="1">
          <mxGeometry y="78" width="160" height="26" as="geometry" />
        </mxCell>
        <mxCell id="WCXfPcYEh5c6cVtNDC9O-44" value="opcion" style="swimlane;fontStyle=1;align=center;verticalAlign=top;childLayout=stackLayout;horizontal=1;startSize=26;horizontalStack=0;resizeParent=1;resizeParentMax=0;resizeLast=0;collapsible=1;marginBottom=0;whiteSpace=wrap;html=1;strokeColor=#3300FF;" parent="1" vertex="1">
          <mxGeometry x="1110" y="770.04" width="160" height="78" as="geometry" />
        </mxCell>
        <mxCell id="WCXfPcYEh5c6cVtNDC9O-46" value="Contenido" style="text;strokeColor=#3300FF;fillColor=none;align=left;verticalAlign=top;spacingLeft=4;spacingRight=4;overflow=hidden;rotatable=0;points=[[0,0.5],[1,0.5]];portConstraint=eastwest;whiteSpace=wrap;html=1;" parent="WCXfPcYEh5c6cVtNDC9O-44" vertex="1">
          <mxGeometry y="26" width="160" height="26" as="geometry" />
        </mxCell>
        <mxCell id="WCXfPcYEh5c6cVtNDC9O-45" value="id" style="text;strokeColor=#3300FF;fillColor=none;align=left;verticalAlign=top;spacingLeft=4;spacingRight=4;overflow=hidden;rotatable=0;points=[[0,0.5],[1,0.5]];portConstraint=eastwest;whiteSpace=wrap;html=1;" parent="WCXfPcYEh5c6cVtNDC9O-44" vertex="1">
          <mxGeometry y="52" width="160" height="26" as="geometry" />
        </mxCell>
        <mxCell id="WCXfPcYEh5c6cVtNDC9O-107" value="Transaccion" style="swimlane;fontStyle=1;align=center;verticalAlign=top;childLayout=stackLayout;horizontal=1;startSize=26;horizontalStack=0;resizeParent=1;resizeParentMax=0;resizeLast=0;collapsible=1;marginBottom=0;whiteSpace=wrap;html=1;strokeColor=#009900;" parent="1" vertex="1">
          <mxGeometry x="239" y="360" width="160" height="130" as="geometry" />
        </mxCell>
        <mxCell id="WCXfPcYEh5c6cVtNDC9O-108" value="Id" style="text;strokeColor=#009900;fillColor=none;align=left;verticalAlign=top;spacingLeft=4;spacingRight=4;overflow=hidden;rotatable=0;points=[[0,0.5],[1,0.5]];portConstraint=eastwest;whiteSpace=wrap;html=1;" parent="WCXfPcYEh5c6cVtNDC9O-107" vertex="1">
          <mxGeometry y="26" width="160" height="26" as="geometry" />
        </mxCell>
        <mxCell id="WCXfPcYEh5c6cVtNDC9O-109" value="Precio" style="text;strokeColor=#009900;fillColor=none;align=left;verticalAlign=top;spacingLeft=4;spacingRight=4;overflow=hidden;rotatable=0;points=[[0,0.5],[1,0.5]];portConstraint=eastwest;whiteSpace=wrap;html=1;" parent="WCXfPcYEh5c6cVtNDC9O-107" vertex="1">
          <mxGeometry y="52" width="160" height="26" as="geometry" />
        </mxCell>
        <mxCell id="WCXfPcYEh5c6cVtNDC9O-110" value="MetodoPago" style="text;strokeColor=#009900;fillColor=none;align=left;verticalAlign=top;spacingLeft=4;spacingRight=4;overflow=hidden;rotatable=0;points=[[0,0.5],[1,0.5]];portConstraint=eastwest;whiteSpace=wrap;html=1;" parent="WCXfPcYEh5c6cVtNDC9O-107" vertex="1">
          <mxGeometry y="78" width="160" height="26" as="geometry" />
        </mxCell>
        <mxCell id="NsuVV6VqmqSOSXp8Vnuj-133" value="CreditosUsados" style="text;strokeColor=#009900;fillColor=none;align=left;verticalAlign=top;spacingLeft=4;spacingRight=4;overflow=hidden;rotatable=0;points=[[0,0.5],[1,0.5]];portConstraint=eastwest;whiteSpace=wrap;html=1;" vertex="1" parent="WCXfPcYEh5c6cVtNDC9O-107">
          <mxGeometry y="104" width="160" height="26" as="geometry" />
        </mxCell>
        <mxCell id="WCXfPcYEh5c6cVtNDC9O-114" value="Foro" style="swimlane;fontStyle=1;align=center;verticalAlign=top;childLayout=stackLayout;horizontal=1;startSize=26;horizontalStack=0;resizeParent=1;resizeParentMax=0;resizeLast=0;collapsible=1;marginBottom=0;whiteSpace=wrap;html=1;strokeColor=#3300FF;" parent="1" vertex="1">
          <mxGeometry x="510" y="917.46" width="160" height="104" as="geometry" />
        </mxCell>
        <mxCell id="WCXfPcYEh5c6cVtNDC9O-115" value="id" style="text;strokeColor=#3300FF;fillColor=none;align=left;verticalAlign=top;spacingLeft=4;spacingRight=4;overflow=hidden;rotatable=0;points=[[0,0.5],[1,0.5]];portConstraint=eastwest;whiteSpace=wrap;html=1;" parent="WCXfPcYEh5c6cVtNDC9O-114" vertex="1">
          <mxGeometry y="26" width="160" height="26" as="geometry" />
        </mxCell>
        <mxCell id="WCXfPcYEh5c6cVtNDC9O-116" value="Nombre" style="text;strokeColor=#3300FF;fillColor=none;align=left;verticalAlign=top;spacingLeft=4;spacingRight=4;overflow=hidden;rotatable=0;points=[[0,0.5],[1,0.5]];portConstraint=eastwest;whiteSpace=wrap;html=1;" parent="WCXfPcYEh5c6cVtNDC9O-114" vertex="1">
          <mxGeometry y="52" width="160" height="26" as="geometry" />
        </mxCell>
        <mxCell id="WCXfPcYEh5c6cVtNDC9O-117" value="Descripcion" style="text;strokeColor=#3300FF;fillColor=none;align=left;verticalAlign=top;spacingLeft=4;spacingRight=4;overflow=hidden;rotatable=0;points=[[0,0.5],[1,0.5]];portConstraint=eastwest;whiteSpace=wrap;html=1;" parent="WCXfPcYEh5c6cVtNDC9O-114" vertex="1">
          <mxGeometry y="78" width="160" height="26" as="geometry" />
        </mxCell>
        <mxCell id="WCXfPcYEh5c6cVtNDC9O-128" style="edgeStyle=orthogonalEdgeStyle;rounded=0;orthogonalLoop=1;jettySize=auto;html=1;entryX=1;entryY=0.5;entryDx=0;entryDy=0;startArrow=classic;startFill=1;endArrow=none;endFill=0;exitX=0;exitY=0.5;exitDx=0;exitDy=0;strokeColor=#3300FF;" parent="1" source="WCXfPcYEh5c6cVtNDC9O-123" target="WCXfPcYEh5c6cVtNDC9O-116" edge="1">
          <mxGeometry relative="1" as="geometry">
            <mxPoint x="760" y="982" as="sourcePoint" />
            <mxPoint x="740.1999999999998" y="1179.996" as="targetPoint" />
          </mxGeometry>
        </mxCell>
        <mxCell id="WCXfPcYEh5c6cVtNDC9O-120" value="Discusion" style="swimlane;fontStyle=1;align=center;verticalAlign=top;childLayout=stackLayout;horizontal=1;startSize=26;horizontalStack=0;resizeParent=1;resizeParentMax=0;resizeLast=0;collapsible=1;marginBottom=0;whiteSpace=wrap;html=1;strokeColor=#3300FF;" parent="1" vertex="1">
          <mxGeometry x="1150" y="917.4600000000002" width="160" height="130" as="geometry" />
        </mxCell>
        <mxCell id="WCXfPcYEh5c6cVtNDC9O-122" value="Id" style="text;strokeColor=#3300FF;fillColor=none;align=left;verticalAlign=top;spacingLeft=4;spacingRight=4;overflow=hidden;rotatable=0;points=[[0,0.5],[1,0.5]];portConstraint=eastwest;whiteSpace=wrap;html=1;" parent="WCXfPcYEh5c6cVtNDC9O-120" vertex="1">
          <mxGeometry y="26" width="160" height="26" as="geometry" />
        </mxCell>
        <mxCell id="NsuVV6VqmqSOSXp8Vnuj-122" value="Nombre" style="text;strokeColor=#3300FF;fillColor=none;align=left;verticalAlign=top;spacingLeft=4;spacingRight=4;overflow=hidden;rotatable=0;points=[[0,0.5],[1,0.5]];portConstraint=eastwest;whiteSpace=wrap;html=1;" vertex="1" parent="WCXfPcYEh5c6cVtNDC9O-120">
          <mxGeometry y="52" width="160" height="26" as="geometry" />
        </mxCell>
        <mxCell id="WCXfPcYEh5c6cVtNDC9O-123" value="Descripcion" style="text;strokeColor=#3300FF;fillColor=none;align=left;verticalAlign=top;spacingLeft=4;spacingRight=4;overflow=hidden;rotatable=0;points=[[0,0.5],[1,0.5]];portConstraint=eastwest;whiteSpace=wrap;html=1;" parent="WCXfPcYEh5c6cVtNDC9O-120" vertex="1">
          <mxGeometry y="78" width="160" height="26" as="geometry" />
        </mxCell>
        <mxCell id="WCXfPcYEh5c6cVtNDC9O-129" value="Multimedia" style="text;strokeColor=#3300FF;fillColor=none;align=left;verticalAlign=top;spacingLeft=4;spacingRight=4;overflow=hidden;rotatable=0;points=[[0,0.5],[1,0.5]];portConstraint=eastwest;whiteSpace=wrap;html=1;" parent="WCXfPcYEh5c6cVtNDC9O-120" vertex="1">
          <mxGeometry y="104" width="160" height="26" as="geometry" />
        </mxCell>
        <mxCell id="LDouwzN-nkE6FRnU46Fn-10" value="CategorÃ­a" style="swimlane;fontStyle=1;align=center;verticalAlign=top;childLayout=stackLayout;horizontal=1;startSize=26;horizontalStack=0;resizeParent=1;resizeParentMax=0;resizeLast=0;collapsible=1;marginBottom=0;whiteSpace=wrap;html=1;strokeColor=#3300FF;" parent="1" vertex="1">
          <mxGeometry x="-210" y="741.5" width="160" height="52" as="geometry" />
        </mxCell>
        <mxCell id="LDouwzN-nkE6FRnU46Fn-11" value="Nombre" style="text;strokeColor=#3300FF;fillColor=none;align=left;verticalAlign=top;spacingLeft=4;spacingRight=4;overflow=hidden;rotatable=0;points=[[0,0.5],[1,0.5]];portConstraint=eastwest;whiteSpace=wrap;html=1;" parent="LDouwzN-nkE6FRnU46Fn-10" vertex="1">
          <mxGeometry y="26" width="160" height="26" as="geometry" />
        </mxCell>
        <mxCell id="LDouwzN-nkE6FRnU46Fn-14" value="RecomendaciÃ³n" style="swimlane;fontStyle=1;align=center;verticalAlign=top;childLayout=stackLayout;horizontal=1;startSize=26;horizontalStack=0;resizeParent=1;resizeParentMax=0;resizeLast=0;collapsible=1;marginBottom=0;whiteSpace=wrap;html=1;strokeColor=#009900;" parent="1" vertex="1">
          <mxGeometry x="310" y="500" width="160" height="52" as="geometry" />
        </mxCell>
        <mxCell id="LDouwzN-nkE6FRnU46Fn-15" value="id" style="text;strokeColor=#009900;fillColor=none;align=left;verticalAlign=top;spacingLeft=4;spacingRight=4;overflow=hidden;rotatable=0;points=[[0,0.5],[1,0.5]];portConstraint=eastwest;whiteSpace=wrap;html=1;" parent="LDouwzN-nkE6FRnU46Fn-14" vertex="1">
          <mxGeometry y="26" width="160" height="26" as="geometry" />
        </mxCell>
        <mxCell id="LDouwzN-nkE6FRnU46Fn-27" value="Sugerencia" style="swimlane;fontStyle=1;align=center;verticalAlign=top;childLayout=stackLayout;horizontal=1;startSize=26;horizontalStack=0;resizeParent=1;resizeParentMax=0;resizeLast=0;collapsible=1;marginBottom=0;whiteSpace=wrap;html=1;strokeColor=#009900;" parent="1" vertex="1">
          <mxGeometry x="20" y="319.96000000000004" width="160" height="156" as="geometry" />
        </mxCell>
        <mxCell id="LDouwzN-nkE6FRnU46Fn-28" value="id" style="text;strokeColor=#009900;fillColor=none;align=left;verticalAlign=top;spacingLeft=4;spacingRight=4;overflow=hidden;rotatable=0;points=[[0,0.5],[1,0.5]];portConstraint=eastwest;whiteSpace=wrap;html=1;" parent="LDouwzN-nkE6FRnU46Fn-27" vertex="1">
          <mxGeometry y="26" width="160" height="26" as="geometry" />
        </mxCell>
        <mxCell id="NsuVV6VqmqSOSXp8Vnuj-60" value="contenido" style="text;strokeColor=#009900;fillColor=none;align=left;verticalAlign=top;spacingLeft=4;spacingRight=4;overflow=hidden;rotatable=0;points=[[0,0.5],[1,0.5]];portConstraint=eastwest;whiteSpace=wrap;html=1;" vertex="1" parent="LDouwzN-nkE6FRnU46Fn-27">
          <mxGeometry y="52" width="160" height="26" as="geometry" />
        </mxCell>
        <mxCell id="LDouwzN-nkE6FRnU46Fn-33" value="multimedia" style="text;strokeColor=#009900;fillColor=none;align=left;verticalAlign=top;spacingLeft=4;spacingRight=4;overflow=hidden;rotatable=0;points=[[0,0.5],[1,0.5]];portConstraint=eastwest;whiteSpace=wrap;html=1;" parent="LDouwzN-nkE6FRnU46Fn-27" vertex="1">
          <mxGeometry y="78" width="160" height="26" as="geometry" />
        </mxCell>
        <mxCell id="LDouwzN-nkE6FRnU46Fn-29" value="fecha" style="text;strokeColor=#009900;fillColor=none;align=left;verticalAlign=top;spacingLeft=4;spacingRight=4;overflow=hidden;rotatable=0;points=[[0,0.5],[1,0.5]];portConstraint=eastwest;whiteSpace=wrap;html=1;" parent="LDouwzN-nkE6FRnU46Fn-27" vertex="1">
          <mxGeometry y="104" width="160" height="26" as="geometry" />
        </mxCell>
        <mxCell id="LDouwzN-nkE6FRnU46Fn-31" value="aprobada" style="text;strokeColor=#009900;fillColor=none;align=left;verticalAlign=top;spacingLeft=4;spacingRight=4;overflow=hidden;rotatable=0;points=[[0,0.5],[1,0.5]];portConstraint=eastwest;whiteSpace=wrap;html=1;" parent="LDouwzN-nkE6FRnU46Fn-27" vertex="1">
          <mxGeometry y="130" width="160" height="26" as="geometry" />
        </mxCell>
        <mxCell id="NsuVV6VqmqSOSXp8Vnuj-15" value="Mensajes&lt;br&gt;" style="swimlane;fontStyle=1;align=center;verticalAlign=top;childLayout=stackLayout;horizontal=1;startSize=26;horizontalStack=0;resizeParent=1;resizeParentMax=0;resizeLast=0;collapsible=1;marginBottom=0;whiteSpace=wrap;html=1;strokeColor=#009900;" vertex="1" parent="1">
          <mxGeometry x="1280" y="250.00000000000006" width="160" height="104" as="geometry" />
        </mxCell>
        <mxCell id="NsuVV6VqmqSOSXp8Vnuj-16" value="id" style="text;strokeColor=#009900;fillColor=none;align=left;verticalAlign=top;spacingLeft=4;spacingRight=4;overflow=hidden;rotatable=0;points=[[0,0.5],[1,0.5]];portConstraint=eastwest;whiteSpace=wrap;html=1;" vertex="1" parent="NsuVV6VqmqSOSXp8Vnuj-15">
          <mxGeometry y="26" width="160" height="26" as="geometry" />
        </mxCell>
        <mxCell id="NsuVV6VqmqSOSXp8Vnuj-17" value="Contenido" style="text;strokeColor=#009900;fillColor=none;align=left;verticalAlign=top;spacingLeft=4;spacingRight=4;overflow=hidden;rotatable=0;points=[[0,0.5],[1,0.5]];portConstraint=eastwest;whiteSpace=wrap;html=1;" vertex="1" parent="NsuVV6VqmqSOSXp8Vnuj-15">
          <mxGeometry y="52" width="160" height="26" as="geometry" />
        </mxCell>
        <mxCell id="NsuVV6VqmqSOSXp8Vnuj-18" value="FechaHora" style="text;strokeColor=#009900;fillColor=none;align=left;verticalAlign=top;spacingLeft=4;spacingRight=4;overflow=hidden;rotatable=0;points=[[0,0.5],[1,0.5]];portConstraint=eastwest;whiteSpace=wrap;html=1;" vertex="1" parent="NsuVV6VqmqSOSXp8Vnuj-15">
          <mxGeometry y="78" width="160" height="26" as="geometry" />
        </mxCell>
        <mxCell id="NsuVV6VqmqSOSXp8Vnuj-26" value="Modulo" style="swimlane;fontStyle=1;align=center;verticalAlign=top;childLayout=stackLayout;horizontal=1;startSize=26;horizontalStack=0;resizeParent=1;resizeParentMax=0;resizeLast=0;collapsible=1;marginBottom=0;whiteSpace=wrap;html=1;strokeColor=#3300FF;" vertex="1" parent="1">
          <mxGeometry x="610" y="701" width="160" height="78" as="geometry" />
        </mxCell>
        <mxCell id="NsuVV6VqmqSOSXp8Vnuj-27" value="id" style="text;strokeColor=#3300FF;fillColor=none;align=left;verticalAlign=top;spacingLeft=4;spacingRight=4;overflow=hidden;rotatable=0;points=[[0,0.5],[1,0.5]];portConstraint=eastwest;whiteSpace=wrap;html=1;" vertex="1" parent="NsuVV6VqmqSOSXp8Vnuj-26">
          <mxGeometry y="26" width="160" height="26" as="geometry" />
        </mxCell>
        <mxCell id="NsuVV6VqmqSOSXp8Vnuj-28" value="Nombre" style="text;strokeColor=#3300FF;fillColor=none;align=left;verticalAlign=top;spacingLeft=4;spacingRight=4;overflow=hidden;rotatable=0;points=[[0,0.5],[1,0.5]];portConstraint=eastwest;whiteSpace=wrap;html=1;" vertex="1" parent="NsuVV6VqmqSOSXp8Vnuj-26">
          <mxGeometry y="52" width="160" height="26" as="geometry" />
        </mxCell>
        <mxCell id="NsuVV6VqmqSOSXp8Vnuj-29" value="Leccion" style="swimlane;fontStyle=1;align=center;verticalAlign=top;childLayout=stackLayout;horizontal=1;startSize=26;horizontalStack=0;resizeParent=1;resizeParentMax=0;resizeLast=0;collapsible=1;marginBottom=0;whiteSpace=wrap;html=1;strokeColor=#3300FF;" vertex="1" parent="1">
          <mxGeometry x="484" y="512.46" width="160" height="130" as="geometry" />
        </mxCell>
        <mxCell id="NsuVV6VqmqSOSXp8Vnuj-30" value="id" style="text;strokeColor=#3300FF;fillColor=none;align=left;verticalAlign=top;spacingLeft=4;spacingRight=4;overflow=hidden;rotatable=0;points=[[0,0.5],[1,0.5]];portConstraint=eastwest;whiteSpace=wrap;html=1;" vertex="1" parent="NsuVV6VqmqSOSXp8Vnuj-29">
          <mxGeometry y="26" width="160" height="26" as="geometry" />
        </mxCell>
        <mxCell id="NsuVV6VqmqSOSXp8Vnuj-31" value="Nombre" style="text;strokeColor=#3300FF;fillColor=none;align=left;verticalAlign=top;spacingLeft=4;spacingRight=4;overflow=hidden;rotatable=0;points=[[0,0.5],[1,0.5]];portConstraint=eastwest;whiteSpace=wrap;html=1;" vertex="1" parent="NsuVV6VqmqSOSXp8Vnuj-29">
          <mxGeometry y="52" width="160" height="26" as="geometry" />
        </mxCell>
        <mxCell id="NsuVV6VqmqSOSXp8Vnuj-32" value="Duracion" style="text;strokeColor=#3300FF;fillColor=none;align=left;verticalAlign=top;spacingLeft=4;spacingRight=4;overflow=hidden;rotatable=0;points=[[0,0.5],[1,0.5]];portConstraint=eastwest;whiteSpace=wrap;html=1;" vertex="1" parent="NsuVV6VqmqSOSXp8Vnuj-29">
          <mxGeometry y="78" width="160" height="26" as="geometry" />
        </mxCell>
        <mxCell id="NsuVV6VqmqSOSXp8Vnuj-33" value="Cont.Multimedia" style="text;strokeColor=#3300FF;fillColor=none;align=left;verticalAlign=top;spacingLeft=4;spacingRight=4;overflow=hidden;rotatable=0;points=[[0,0.5],[1,0.5]];portConstraint=eastwest;whiteSpace=wrap;html=1;" vertex="1" parent="NsuVV6VqmqSOSXp8Vnuj-29">
          <mxGeometry y="104" width="160" height="26" as="geometry" />
        </mxCell>
        <mxCell id="NsuVV6VqmqSOSXp8Vnuj-42" style="rounded=0;orthogonalLoop=1;jettySize=auto;html=1;entryX=0.5;entryY=0;entryDx=0;entryDy=0;exitX=0.062;exitY=1.048;exitDx=0;exitDy=0;exitPerimeter=0;strokeColor=#009900;" edge="1" parent="1" source="ZPtAmM3owyAXCY_3X43K-27" target="WCXfPcYEh5c6cVtNDC9O-107">
          <mxGeometry relative="1" as="geometry">
            <mxPoint x="460" y="220" as="sourcePoint" />
            <mxPoint x="463" y="440" as="targetPoint" />
          </mxGeometry>
        </mxCell>
        <mxCell id="NsuVV6VqmqSOSXp8Vnuj-43" value="1" style="text;html=1;align=center;verticalAlign=middle;resizable=0;points=[];autosize=1;strokeColor=#009900;fillColor=none;" vertex="1" parent="1">
          <mxGeometry x="384" y="218" width="30" height="30" as="geometry" />
        </mxCell>
        <mxCell id="NsuVV6VqmqSOSXp8Vnuj-44" value="*" style="text;html=1;align=center;verticalAlign=middle;resizable=0;points=[];autosize=1;strokeColor=#009900;fillColor=none;" vertex="1" parent="1">
          <mxGeometry x="480" y="230" width="30" height="30" as="geometry" />
        </mxCell>
        <mxCell id="NsuVV6VqmqSOSXp8Vnuj-46" style="rounded=0;orthogonalLoop=1;jettySize=auto;html=1;" edge="1" parent="1" target="ZPtAmM3owyAXCY_3X43K-69">
          <mxGeometry relative="1" as="geometry">
            <mxPoint x="260" y="490" as="sourcePoint" />
            <mxPoint x="110" y="700" as="targetPoint" />
          </mxGeometry>
        </mxCell>
        <mxCell id="NsuVV6VqmqSOSXp8Vnuj-47" value="*" style="text;html=1;align=center;verticalAlign=middle;resizable=0;points=[];autosize=1;strokeColor=#009900;fillColor=none;" vertex="1" parent="1">
          <mxGeometry x="260" y="505.96000000000004" width="30" height="30" as="geometry" />
        </mxCell>
        <mxCell id="NsuVV6VqmqSOSXp8Vnuj-48" value="1" style="text;html=1;align=center;verticalAlign=middle;resizable=0;points=[];autosize=1;strokeColor=none;fillColor=none;" vertex="1" parent="1">
          <mxGeometry x="150" y="671" width="30" height="30" as="geometry" />
        </mxCell>
        <mxCell id="NsuVV6VqmqSOSXp8Vnuj-49" style="rounded=0;orthogonalLoop=1;jettySize=auto;html=1;entryX=0.25;entryY=0;entryDx=0;entryDy=0;exitX=0.691;exitY=1.121;exitDx=0;exitDy=0;exitPerimeter=0;strokeColor=#009900;" edge="1" parent="1" source="ZPtAmM3owyAXCY_3X43K-27" target="NsuVV6VqmqSOSXp8Vnuj-29">
          <mxGeometry relative="1" as="geometry">
            <mxPoint x="401" y="229" as="sourcePoint" />
            <mxPoint x="329" y="370" as="targetPoint" />
          </mxGeometry>
        </mxCell>
        <mxCell id="NsuVV6VqmqSOSXp8Vnuj-50" value="*" style="text;html=1;align=center;verticalAlign=middle;resizable=0;points=[];autosize=1;strokeColor=#009900;fillColor=none;" vertex="1" parent="1">
          <mxGeometry x="522" y="482.46000000000004" width="30" height="30" as="geometry" />
        </mxCell>
        <mxCell id="NsuVV6VqmqSOSXp8Vnuj-53" value="" style="endArrow=classic;startArrow=classic;html=1;rounded=0;entryX=0.357;entryY=1.048;entryDx=0;entryDy=0;entryPerimeter=0;exitX=0.75;exitY=0;exitDx=0;exitDy=0;strokeColor=#009900;" edge="1" parent="1" source="LDouwzN-nkE6FRnU46Fn-14" target="ZPtAmM3owyAXCY_3X43K-27">
          <mxGeometry width="50" height="50" relative="1" as="geometry">
            <mxPoint x="540" y="330" as="sourcePoint" />
            <mxPoint x="476" y="383" as="targetPoint" />
          </mxGeometry>
        </mxCell>
        <mxCell id="NsuVV6VqmqSOSXp8Vnuj-54" value="1" style="text;html=1;align=center;verticalAlign=middle;resizable=0;points=[];autosize=1;strokeColor=#009900;fillColor=none;" vertex="1" parent="1">
          <mxGeometry x="430" y="218" width="30" height="30" as="geometry" />
        </mxCell>
        <mxCell id="NsuVV6VqmqSOSXp8Vnuj-55" value="*" style="text;html=1;align=center;verticalAlign=middle;resizable=0;points=[];autosize=1;strokeColor=#009900;fillColor=none;" vertex="1" parent="1">
          <mxGeometry x="425" y="475.96" width="30" height="30" as="geometry" />
        </mxCell>
        <mxCell id="NsuVV6VqmqSOSXp8Vnuj-57" style="rounded=0;orthogonalLoop=1;jettySize=auto;html=1;entryX=0.5;entryY=0;entryDx=0;entryDy=0;exitX=0.566;exitY=1.095;exitDx=0;exitDy=0;exitPerimeter=0;" edge="1" parent="1" source="LDouwzN-nkE6FRnU46Fn-15" target="ZPtAmM3owyAXCY_3X43K-39">
          <mxGeometry relative="1" as="geometry">
            <mxPoint x="489" y="231" as="sourcePoint" />
            <mxPoint x="534" y="522" as="targetPoint" />
          </mxGeometry>
        </mxCell>
        <mxCell id="NsuVV6VqmqSOSXp8Vnuj-58" value="1" style="text;html=1;align=center;verticalAlign=middle;resizable=0;points=[];autosize=1;strokeColor=none;fillColor=none;" vertex="1" parent="1">
          <mxGeometry x="370" y="711.5" width="30" height="30" as="geometry" />
        </mxCell>
        <mxCell id="NsuVV6VqmqSOSXp8Vnuj-59" value="*" style="text;html=1;align=center;verticalAlign=middle;resizable=0;points=[];autosize=1;strokeColor=#009900;fillColor=none;" vertex="1" parent="1">
          <mxGeometry x="370" y="555" width="30" height="30" as="geometry" />
        </mxCell>
        <mxCell id="NsuVV6VqmqSOSXp8Vnuj-61" style="rounded=0;orthogonalLoop=1;jettySize=auto;html=1;exitX=0.483;exitY=1.089;exitDx=0;exitDy=0;exitPerimeter=0;" edge="1" parent="1" source="LDouwzN-nkE6FRnU46Fn-31">
          <mxGeometry relative="1" as="geometry">
            <mxPoint x="286" y="477" as="sourcePoint" />
            <mxPoint x="80" y="700" as="targetPoint" />
          </mxGeometry>
        </mxCell>
        <mxCell id="NsuVV6VqmqSOSXp8Vnuj-62" value="1" style="text;html=1;align=center;verticalAlign=middle;resizable=0;points=[];autosize=1;strokeColor=#3300FF;fillColor=none;" vertex="1" parent="1">
          <mxGeometry x="58" y="670" width="30" height="30" as="geometry" />
        </mxCell>
        <mxCell id="NsuVV6VqmqSOSXp8Vnuj-63" value="*" style="text;html=1;align=center;verticalAlign=middle;resizable=0;points=[];autosize=1;strokeColor=#009900;fillColor=none;" vertex="1" parent="1">
          <mxGeometry x="58" y="482.46000000000004" width="30" height="30" as="geometry" />
        </mxCell>
        <mxCell id="NsuVV6VqmqSOSXp8Vnuj-65" style="rounded=0;orthogonalLoop=1;jettySize=auto;html=1;exitX=0.444;exitY=1.06;exitDx=0;exitDy=0;exitPerimeter=0;entryX=0.719;entryY=0.986;entryDx=0;entryDy=0;entryPerimeter=0;strokeColor=#009900;" edge="1" parent="1" source="ZPtAmM3owyAXCY_3X43K-35" target="NsuVV6VqmqSOSXp8Vnuj-71">
          <mxGeometry relative="1" as="geometry">
            <mxPoint x="401" y="229" as="sourcePoint" />
            <mxPoint x="329" y="370" as="targetPoint" />
          </mxGeometry>
        </mxCell>
        <mxCell id="NsuVV6VqmqSOSXp8Vnuj-66" value="*" style="text;html=1;align=center;verticalAlign=middle;resizable=0;points=[];autosize=1;strokeColor=#009900;fillColor=none;" vertex="1" parent="1">
          <mxGeometry x="140" y="300" width="30" height="30" as="geometry" />
        </mxCell>
        <mxCell id="NsuVV6VqmqSOSXp8Vnuj-67" value="1" style="text;html=1;align=center;verticalAlign=middle;resizable=0;points=[];autosize=1;strokeColor=#009900;fillColor=none;" vertex="1" parent="1">
          <mxGeometry x="210" y="218" width="30" height="30" as="geometry" />
        </mxCell>
        <mxCell id="NsuVV6VqmqSOSXp8Vnuj-69" value="1" style="text;html=1;align=center;verticalAlign=middle;resizable=0;points=[];autosize=1;strokeColor=#009900;fillColor=none;" vertex="1" parent="1">
          <mxGeometry x="85" y="218" width="30" height="30" as="geometry" />
        </mxCell>
        <mxCell id="NsuVV6VqmqSOSXp8Vnuj-71" value="*" style="text;html=1;align=center;verticalAlign=middle;resizable=0;points=[];autosize=1;strokeColor=#009900;fillColor=none;" vertex="1" parent="1">
          <mxGeometry x="80" y="290" width="30" height="30" as="geometry" />
        </mxCell>
        <mxCell id="NsuVV6VqmqSOSXp8Vnuj-72" value="" style="endArrow=classic;startArrow=classic;html=1;rounded=0;exitX=1.052;exitY=0.89;exitDx=0;exitDy=0;exitPerimeter=0;entryX=0.24;entryY=1.115;entryDx=0;entryDy=0;entryPerimeter=0;strokeColor=#009900;" edge="1" parent="1" source="NsuVV6VqmqSOSXp8Vnuj-66" target="ZPtAmM3owyAXCY_3X43K-31">
          <mxGeometry width="50" height="50" relative="1" as="geometry">
            <mxPoint x="440" y="510" as="sourcePoint" />
            <mxPoint x="190" y="230" as="targetPoint" />
          </mxGeometry>
        </mxCell>
        <mxCell id="NsuVV6VqmqSOSXp8Vnuj-73" style="rounded=0;orthogonalLoop=1;jettySize=auto;html=1;entryX=0;entryY=0.5;entryDx=0;entryDy=0;" edge="1" parent="1" target="WCXfPcYEh5c6cVtNDC9O-5">
          <mxGeometry relative="1" as="geometry">
            <mxPoint x="520" y="220" as="sourcePoint" />
            <mxPoint x="534" y="522" as="targetPoint" />
          </mxGeometry>
        </mxCell>
        <mxCell id="NsuVV6VqmqSOSXp8Vnuj-74" value="1" style="text;html=1;align=center;verticalAlign=middle;resizable=0;points=[];autosize=1;strokeColor=#009900;fillColor=none;" vertex="1" parent="1">
          <mxGeometry x="522" y="200" width="30" height="30" as="geometry" />
        </mxCell>
        <mxCell id="NsuVV6VqmqSOSXp8Vnuj-75" value="*" style="text;html=1;align=center;verticalAlign=middle;resizable=0;points=[];autosize=1;strokeColor=#009900;fillColor=none;" vertex="1" parent="1">
          <mxGeometry x="690" y="342" width="30" height="30" as="geometry" />
        </mxCell>
        <mxCell id="NsuVV6VqmqSOSXp8Vnuj-76" style="rounded=0;orthogonalLoop=1;jettySize=auto;html=1;entryX=0;entryY=0.5;entryDx=0;entryDy=0;exitX=1.004;exitY=0.029;exitDx=0;exitDy=0;exitPerimeter=0;strokeColor=#009900;" edge="1" parent="1" source="WCXfPcYEh5c6cVtNDC9O-5" target="WCXfPcYEh5c6cVtNDC9O-26">
          <mxGeometry relative="1" as="geometry">
            <mxPoint x="890" y="371.5" as="sourcePoint" />
            <mxPoint x="1090" y="532.5" as="targetPoint" />
          </mxGeometry>
        </mxCell>
        <mxCell id="NsuVV6VqmqSOSXp8Vnuj-77" value="1" style="text;html=1;align=center;verticalAlign=middle;resizable=0;points=[];autosize=1;strokeColor=#009900;fillColor=none;" vertex="1" parent="1">
          <mxGeometry x="880" y="342" width="30" height="30" as="geometry" />
        </mxCell>
        <mxCell id="NsuVV6VqmqSOSXp8Vnuj-78" value="*" style="text;html=1;align=center;verticalAlign=middle;resizable=0;points=[];autosize=1;strokeColor=#009900;fillColor=none;" vertex="1" parent="1">
          <mxGeometry x="1080" y="397" width="30" height="30" as="geometry" />
        </mxCell>
        <mxCell id="NsuVV6VqmqSOSXp8Vnuj-79" style="rounded=0;orthogonalLoop=1;jettySize=auto;html=1;exitX=0.617;exitY=1.044;exitDx=0;exitDy=0;exitPerimeter=0;" edge="1" parent="1" source="WCXfPcYEh5c6cVtNDC9O-9">
          <mxGeometry relative="1" as="geometry">
            <mxPoint x="489" y="231" as="sourcePoint" />
            <mxPoint x="890" y="570" as="targetPoint" />
          </mxGeometry>
        </mxCell>
        <mxCell id="NsuVV6VqmqSOSXp8Vnuj-81" value="1" style="text;html=1;align=center;verticalAlign=middle;resizable=0;points=[];autosize=1;strokeColor=#3300FF;fillColor=none;" vertex="1" parent="1">
          <mxGeometry x="890" y="545.46" width="30" height="30" as="geometry" />
        </mxCell>
        <mxCell id="NsuVV6VqmqSOSXp8Vnuj-82" value="*" style="text;html=1;align=center;verticalAlign=middle;resizable=0;points=[];autosize=1;strokeColor=#009900;fillColor=none;" vertex="1" parent="1">
          <mxGeometry x="827" y="420" width="30" height="30" as="geometry" />
        </mxCell>
        <mxCell id="NsuVV6VqmqSOSXp8Vnuj-83" style="rounded=0;orthogonalLoop=1;jettySize=auto;html=1;exitX=0.513;exitY=1.018;exitDx=0;exitDy=0;exitPerimeter=0;" edge="1" parent="1" source="WCXfPcYEh5c6cVtNDC9O-28" target="WCXfPcYEh5c6cVtNDC9O-10">
          <mxGeometry relative="1" as="geometry">
            <mxPoint x="829" y="431" as="sourcePoint" />
            <mxPoint x="900" y="580" as="targetPoint" />
          </mxGeometry>
        </mxCell>
        <mxCell id="NsuVV6VqmqSOSXp8Vnuj-84" value="*" style="text;html=1;align=center;verticalAlign=middle;resizable=0;points=[];autosize=1;strokeColor=#009900;fillColor=none;" vertex="1" parent="1">
          <mxGeometry x="1190" y="494" width="30" height="30" as="geometry" />
        </mxCell>
        <mxCell id="NsuVV6VqmqSOSXp8Vnuj-85" value="1" style="text;html=1;align=center;verticalAlign=middle;resizable=0;points=[];autosize=1;strokeColor=#3300FF;fillColor=none;" vertex="1" parent="1">
          <mxGeometry x="1190" y="545.46" width="30" height="30" as="geometry" />
        </mxCell>
        <mxCell id="NsuVV6VqmqSOSXp8Vnuj-87" style="rounded=0;orthogonalLoop=1;jettySize=auto;html=1;exitX=0.513;exitY=1.018;exitDx=0;exitDy=0;exitPerimeter=0;strokeColor=#3300FF;" edge="1" parent="1">
          <mxGeometry relative="1" as="geometry">
            <mxPoint x="1190" y="700" as="sourcePoint" />
            <mxPoint x="1189" y="770" as="targetPoint" />
          </mxGeometry>
        </mxCell>
        <mxCell id="NsuVV6VqmqSOSXp8Vnuj-88" value="1" style="text;html=1;align=center;verticalAlign=middle;resizable=0;points=[];autosize=1;strokeColor=#3300FF;fillColor=none;" vertex="1" parent="1">
          <mxGeometry x="1190" y="700" width="30" height="30" as="geometry" />
        </mxCell>
        <mxCell id="NsuVV6VqmqSOSXp8Vnuj-89" value="*" style="text;html=1;align=center;verticalAlign=middle;resizable=0;points=[];autosize=1;strokeColor=#3300FF;fillColor=none;" vertex="1" parent="1">
          <mxGeometry x="1190" y="749" width="30" height="30" as="geometry" />
        </mxCell>
        <mxCell id="NsuVV6VqmqSOSXp8Vnuj-90" style="rounded=0;orthogonalLoop=1;jettySize=auto;html=1;exitX=1.022;exitY=0.251;exitDx=0;exitDy=0;exitPerimeter=0;entryX=0;entryY=0.5;entryDx=0;entryDy=0;strokeColor=#3300FF;" edge="1" parent="1" source="ZPtAmM3owyAXCY_3X43K-98" target="WCXfPcYEh5c6cVtNDC9O-13">
          <mxGeometry relative="1" as="geometry">
            <mxPoint x="829" y="431" as="sourcePoint" />
            <mxPoint x="900" y="580" as="targetPoint" />
          </mxGeometry>
        </mxCell>
        <mxCell id="NsuVV6VqmqSOSXp8Vnuj-91" value="1" style="text;html=1;align=center;verticalAlign=middle;resizable=0;points=[];autosize=1;strokeColor=#3300FF;fillColor=none;" vertex="1" parent="1">
          <mxGeometry x="1020" y="600" width="30" height="30" as="geometry" />
        </mxCell>
        <mxCell id="NsuVV6VqmqSOSXp8Vnuj-92" value="*" style="text;html=1;align=center;verticalAlign=middle;resizable=0;points=[];autosize=1;strokeColor=#3300FF;fillColor=none;" vertex="1" parent="1">
          <mxGeometry x="1080" y="600" width="30" height="30" as="geometry" />
        </mxCell>
        <mxCell id="NsuVV6VqmqSOSXp8Vnuj-93" style="rounded=0;orthogonalLoop=1;jettySize=auto;html=1;exitX=1;exitY=0;exitDx=0;exitDy=0;entryX=-0.014;entryY=0.985;entryDx=0;entryDy=0;entryPerimeter=0;strokeColor=#3300FF;" edge="1" parent="1" source="NsuVV6VqmqSOSXp8Vnuj-26" target="WCXfPcYEh5c6cVtNDC9O-47">
          <mxGeometry relative="1" as="geometry">
            <mxPoint x="1034" y="644" as="sourcePoint" />
            <mxPoint x="1120" y="645" as="targetPoint" />
          </mxGeometry>
        </mxCell>
        <mxCell id="NsuVV6VqmqSOSXp8Vnuj-94" value="1" style="text;html=1;align=center;verticalAlign=middle;resizable=0;points=[];autosize=1;strokeColor=#3300FF;fillColor=none;" vertex="1" parent="1">
          <mxGeometry x="750" y="671" width="30" height="30" as="geometry" />
        </mxCell>
        <mxCell id="NsuVV6VqmqSOSXp8Vnuj-95" value="*" style="text;html=1;align=center;verticalAlign=middle;resizable=0;points=[];autosize=1;strokeColor=#3300FF;fillColor=none;" vertex="1" parent="1">
          <mxGeometry x="827" y="653.46" width="30" height="30" as="geometry" />
        </mxCell>
        <mxCell id="NsuVV6VqmqSOSXp8Vnuj-96" value="" style="endArrow=classic;startArrow=classic;html=1;rounded=0;entryX=0.379;entryY=1.048;entryDx=0;entryDy=0;entryPerimeter=0;" edge="1" parent="1" target="ZPtAmM3owyAXCY_3X43K-31">
          <mxGeometry width="50" height="50" relative="1" as="geometry">
            <mxPoint x="100" y="700" as="sourcePoint" />
            <mxPoint x="220" y="294.5" as="targetPoint" />
            <Array as="points">
              <mxPoint x="190" y="460" />
            </Array>
          </mxGeometry>
        </mxCell>
        <mxCell id="NsuVV6VqmqSOSXp8Vnuj-101" value="*" style="text;html=1;align=center;verticalAlign=middle;resizable=0;points=[];autosize=1;strokeColor=none;fillColor=none;" vertex="1" parent="1">
          <mxGeometry x="100" y="671" width="30" height="30" as="geometry" />
        </mxCell>
        <mxCell id="NsuVV6VqmqSOSXp8Vnuj-102" value="*" style="text;html=1;align=center;verticalAlign=middle;resizable=0;points=[];autosize=1;strokeColor=#009900;fillColor=none;" vertex="1" parent="1">
          <mxGeometry x="270" y="218" width="30" height="30" as="geometry" />
        </mxCell>
        <mxCell id="NsuVV6VqmqSOSXp8Vnuj-103" value="" style="endArrow=classic;startArrow=classic;html=1;rounded=0;entryX=-0.002;entryY=0.938;entryDx=0;entryDy=0;entryPerimeter=0;" edge="1" parent="1" target="ZPtAmM3owyAXCY_3X43K-35">
          <mxGeometry width="50" height="50" relative="1" as="geometry">
            <mxPoint x="30" y="700" as="sourcePoint" />
            <mxPoint x="-40" y="250" as="targetPoint" />
            <Array as="points">
              <mxPoint x="-50" y="410" />
            </Array>
          </mxGeometry>
        </mxCell>
        <mxCell id="NsuVV6VqmqSOSXp8Vnuj-104" value="1" style="text;html=1;align=center;verticalAlign=middle;resizable=0;points=[];autosize=1;strokeColor=#009900;fillColor=none;" vertex="1" parent="1">
          <mxGeometry x="20" y="200" width="30" height="30" as="geometry" />
        </mxCell>
        <mxCell id="NsuVV6VqmqSOSXp8Vnuj-105" value="*" style="text;html=1;align=center;verticalAlign=middle;resizable=0;points=[];autosize=1;strokeColor=#3300FF;fillColor=none;" vertex="1" parent="1">
          <mxGeometry x="-10" y="671" width="30" height="30" as="geometry" />
        </mxCell>
        <mxCell id="NsuVV6VqmqSOSXp8Vnuj-106" style="rounded=0;orthogonalLoop=1;jettySize=auto;html=1;entryX=0.998;entryY=0.012;entryDx=0;entryDy=0;exitX=0;exitY=0.5;exitDx=0;exitDy=0;entryPerimeter=0;strokeColor=#3300FF;" edge="1" parent="1" source="ZPtAmM3owyAXCY_3X43K-47" target="LDouwzN-nkE6FRnU46Fn-11">
          <mxGeometry relative="1" as="geometry">
            <mxPoint x="411" y="564" as="sourcePoint" />
            <mxPoint x="414" y="750" as="targetPoint" />
          </mxGeometry>
        </mxCell>
        <mxCell id="NsuVV6VqmqSOSXp8Vnuj-107" value="*" style="text;html=1;align=center;verticalAlign=middle;resizable=0;points=[];autosize=1;strokeColor=#3300FF;fillColor=none;" vertex="1" parent="1">
          <mxGeometry x="-10" y="740" width="30" height="30" as="geometry" />
        </mxCell>
        <mxCell id="NsuVV6VqmqSOSXp8Vnuj-108" value="1" style="text;html=1;align=center;verticalAlign=middle;resizable=0;points=[];autosize=1;strokeColor=#3300FF;fillColor=none;" vertex="1" parent="1">
          <mxGeometry x="-50" y="740" width="30" height="30" as="geometry" />
        </mxCell>
        <mxCell id="NsuVV6VqmqSOSXp8Vnuj-110" value="*" style="text;html=1;align=center;verticalAlign=middle;resizable=0;points=[];autosize=1;strokeColor=#009900;fillColor=none;" vertex="1" parent="1">
          <mxGeometry x="370" y="-20" width="30" height="30" as="geometry" />
        </mxCell>
        <mxCell id="NsuVV6VqmqSOSXp8Vnuj-113" value="*" style="text;html=1;align=center;verticalAlign=middle;resizable=0;points=[];autosize=1;strokeColor=#009900;fillColor=none;" vertex="1" parent="1">
          <mxGeometry x="1340" y="220.00000000000006" width="30" height="30" as="geometry" />
        </mxCell>
        <mxCell id="NsuVV6VqmqSOSXp8Vnuj-114" value="" style="endArrow=classic;startArrow=classic;html=1;rounded=0;entryX=-0.033;entryY=0.978;entryDx=0;entryDy=0;entryPerimeter=0;exitX=0.5;exitY=0;exitDx=0;exitDy=0;" edge="1" parent="1" source="NsuVV6VqmqSOSXp8Vnuj-15" target="NsuVV6VqmqSOSXp8Vnuj-110">
          <mxGeometry width="50" height="50" relative="1" as="geometry">
            <mxPoint x="1530" y="420" as="sourcePoint" />
            <mxPoint x="390" y="30" as="targetPoint" />
          </mxGeometry>
        </mxCell>
        <mxCell id="NsuVV6VqmqSOSXp8Vnuj-116" value="" style="endArrow=classic;startArrow=classic;html=1;rounded=0;exitX=0.548;exitY=1.167;exitDx=0;exitDy=0;entryX=1.031;entryY=-0.107;entryDx=0;entryDy=0;entryPerimeter=0;exitPerimeter=0;" edge="1" parent="1" source="NsuVV6VqmqSOSXp8Vnuj-18" target="WCXfPcYEh5c6cVtNDC9O-129">
          <mxGeometry width="50" height="50" relative="1" as="geometry">
            <mxPoint x="1520" y="585" as="sourcePoint" />
            <mxPoint x="1492.6666666666667" y="898" as="targetPoint" />
            <Array as="points">
              <mxPoint x="1380" y="1019" />
            </Array>
          </mxGeometry>
        </mxCell>
        <mxCell id="NsuVV6VqmqSOSXp8Vnuj-117" value="*" style="text;html=1;align=center;verticalAlign=middle;resizable=0;points=[];autosize=1;strokeColor=#009900;fillColor=none;" vertex="1" parent="1">
          <mxGeometry x="1340" y="368.46000000000004" width="30" height="30" as="geometry" />
        </mxCell>
        <mxCell id="NsuVV6VqmqSOSXp8Vnuj-118" value="0,1" style="text;html=1;align=center;verticalAlign=middle;resizable=0;points=[];autosize=1;strokeColor=#3300FF;fillColor=none;" vertex="1" parent="1">
          <mxGeometry x="1315" y="954.46" width="40" height="30" as="geometry" />
        </mxCell>
        <mxCell id="NsuVV6VqmqSOSXp8Vnuj-119" value="" style="endArrow=classic;startArrow=classic;html=1;rounded=0;exitX=0.84;exitY=1.013;exitDx=0;exitDy=0;entryX=1;entryY=0.5;entryDx=0;entryDy=0;exitPerimeter=0;startFill=1;endFill=1;" edge="1" parent="1" source="NsuVV6VqmqSOSXp8Vnuj-18" target="ZPtAmM3owyAXCY_3X43K-62">
          <mxGeometry width="50" height="50" relative="1" as="geometry">
            <mxPoint x="1603" y="600" as="sourcePoint" />
            <mxPoint x="1020" y="1058" as="targetPoint" />
            <Array as="points">
              <mxPoint x="1440" y="1111" />
            </Array>
          </mxGeometry>
        </mxCell>
        <mxCell id="NsuVV6VqmqSOSXp8Vnuj-120" value="*" style="text;html=1;align=center;verticalAlign=middle;resizable=0;points=[];autosize=1;strokeColor=#009900;fillColor=none;" vertex="1" parent="1">
          <mxGeometry x="1420" y="368.46000000000004" width="30" height="30" as="geometry" />
        </mxCell>
        <mxCell id="NsuVV6VqmqSOSXp8Vnuj-121" value="0,1" style="text;html=1;align=center;verticalAlign=middle;resizable=0;points=[];autosize=1;strokeColor=#3300FF;fillColor=none;" vertex="1" parent="1">
          <mxGeometry x="517" y="1080" width="40" height="30" as="geometry" />
        </mxCell>
        <mxCell id="NsuVV6VqmqSOSXp8Vnuj-123" value="*" style="text;html=1;align=center;verticalAlign=middle;resizable=0;points=[];autosize=1;strokeColor=#3300FF;fillColor=none;" vertex="1" parent="1">
          <mxGeometry x="1120" y="970" width="30" height="30" as="geometry" />
        </mxCell>
        <mxCell id="NsuVV6VqmqSOSXp8Vnuj-124" value="1" style="text;html=1;align=center;verticalAlign=middle;resizable=0;points=[];autosize=1;strokeColor=#3300FF;fillColor=none;" vertex="1" parent="1">
          <mxGeometry x="670" y="950" width="30" height="30" as="geometry" />
        </mxCell>
        <mxCell id="NsuVV6VqmqSOSXp8Vnuj-125" style="rounded=0;orthogonalLoop=1;jettySize=auto;html=1;startArrow=classic;startFill=1;endArrow=none;endFill=0;exitX=0;exitY=0;exitDx=0;exitDy=0;entryX=0.481;entryY=1.051;entryDx=0;entryDy=0;entryPerimeter=0;strokeColor=#3300FF;" edge="1" parent="1" source="WCXfPcYEh5c6cVtNDC9O-114" target="NsuVV6VqmqSOSXp8Vnuj-100">
          <mxGeometry relative="1" as="geometry">
            <mxPoint x="810" y="1018" as="sourcePoint" />
            <mxPoint x="390" y="830" as="targetPoint" />
          </mxGeometry>
        </mxCell>
        <mxCell id="NsuVV6VqmqSOSXp8Vnuj-126" value="1" style="text;html=1;align=center;verticalAlign=middle;resizable=0;points=[];autosize=1;strokeColor=#3300FF;fillColor=none;" vertex="1" parent="1">
          <mxGeometry x="425" y="818" width="30" height="30" as="geometry" />
        </mxCell>
        <mxCell id="NsuVV6VqmqSOSXp8Vnuj-127" value="*" style="text;html=1;align=center;verticalAlign=middle;resizable=0;points=[];autosize=1;strokeColor=#3300FF;fillColor=none;" vertex="1" parent="1">
          <mxGeometry x="500" y="887.46" width="30" height="30" as="geometry" />
        </mxCell>
        <mxCell id="NsuVV6VqmqSOSXp8Vnuj-128" value="*" style="text;html=1;align=center;verticalAlign=middle;resizable=0;points=[];autosize=1;strokeColor=#3300FF;fillColor=none;" vertex="1" parent="1">
          <mxGeometry x="580" y="701" width="30" height="30" as="geometry" />
        </mxCell>
        <mxCell id="NsuVV6VqmqSOSXp8Vnuj-129" value="1" style="text;html=1;align=center;verticalAlign=middle;resizable=0;points=[];autosize=1;strokeColor=none;fillColor=none;" vertex="1" parent="1">
          <mxGeometry x="480" y="731" width="30" height="30" as="geometry" />
        </mxCell>
        <mxCell id="NsuVV6VqmqSOSXp8Vnuj-130" style="rounded=0;orthogonalLoop=1;jettySize=auto;html=1;startArrow=classic;startFill=1;endArrow=none;endFill=0;exitX=0.848;exitY=1.239;exitDx=0;exitDy=0;entryX=0.5;entryY=0;entryDx=0;entryDy=0;exitPerimeter=0;strokeColor=#3300FF;" edge="1" parent="1" source="NsuVV6VqmqSOSXp8Vnuj-33" target="NsuVV6VqmqSOSXp8Vnuj-26">
          <mxGeometry relative="1" as="geometry">
            <mxPoint x="700" y="882" as="sourcePoint" />
            <mxPoint x="591" y="784" as="targetPoint" />
          </mxGeometry>
        </mxCell>
        <mxCell id="NsuVV6VqmqSOSXp8Vnuj-131" value="1" style="text;html=1;align=center;verticalAlign=middle;resizable=0;points=[];autosize=1;strokeColor=#3300FF;fillColor=none;" vertex="1" parent="1">
          <mxGeometry x="690" y="670" width="30" height="30" as="geometry" />
        </mxCell>
        <mxCell id="NsuVV6VqmqSOSXp8Vnuj-132" value="*" style="text;html=1;align=center;verticalAlign=middle;resizable=0;points=[];autosize=1;strokeColor=#3300FF;fillColor=none;" vertex="1" parent="1">
          <mxGeometry x="640" y="640" width="30" height="30" as="geometry" />
        </mxCell>
        <mxCell id="NsuVV6VqmqSOSXp8Vnuj-135" value="" style="endArrow=classic;startArrow=classic;html=1;rounded=0;exitX=1;exitY=0.5;exitDx=0;exitDy=0;entryX=0.867;entryY=-0.046;entryDx=0;entryDy=0;entryPerimeter=0;" edge="1" parent="1" source="ZPtAmM3owyAXCY_3X43K-21" target="WCXfPcYEh5c6cVtNDC9O-120">
          <mxGeometry width="50" height="50" relative="1" as="geometry">
            <mxPoint x="1303" y="342" as="sourcePoint" />
            <mxPoint x="1290" y="910" as="targetPoint" />
            <Array as="points">
              <mxPoint x="1289" y="380" />
              <mxPoint x="1310" y="820" />
            </Array>
          </mxGeometry>
        </mxCell>
        <mxCell id="NsuVV6VqmqSOSXp8Vnuj-136" value="1" style="text;html=1;align=center;verticalAlign=middle;resizable=0;points=[];autosize=1;strokeColor=none;fillColor=none;" vertex="1" parent="1">
          <mxGeometry x="370" y="40" width="30" height="30" as="geometry" />
        </mxCell>
        <mxCell id="NsuVV6VqmqSOSXp8Vnuj-137" value="*" style="text;html=1;align=center;verticalAlign=middle;resizable=0;points=[];autosize=1;strokeColor=none;fillColor=none;" vertex="1" parent="1">
          <mxGeometry x="1300" y="880" width="30" height="30" as="geometry" />
        </mxCell>
      </root>
    </mxGraphModel>
  </diagram>
</mxfile>
